<?xml version="1.0"?>
<svg width="40" height="40" xmlns="http://www.w3.org/2000/svg" xmlns:svg="http://www.w3.org/2000/svg" enable-background="new 0 0 40 40" version="1.1" xml:space="preserve">
 <g class="layer">
  <title>Layer 1</title>
  <g id="svg_1">
   <path d="m40,28.8c0,0.8 -0.3,1.7 -0.8,2.3c-1.1,1.3 -2.8,1.3 -3.9,0l-13,-15.5c-0.6,-0.7 -1.4,-1.1 -2.3,-1.1c-0.9,0 -1.7,0.4 -2.3,1.1l-13,15.5c-1.1,1.3 -2.8,1.3 -3.9,0s-1.1,-3.4 0,-4.7l13,-15.5c1.7,-2 3.9,-3.1 6.2,-3.1c2.3,0 4.6,1.1 6.2,3.1l13,15.5c0.5,0.7 0.8,1.6 0.8,2.4z" fill="#f4b6c2" id="svg_2"/>
  </g>
 </g>
</svg>