<svg width="28" height="19" viewBox="0 0 28 19" fill="none" xmlns="http://www.w3.org/2000/svg">
<path fill-rule="evenodd" clip-rule="evenodd" d="M0.825063 0.122415L12.5577 10.4623C12.9422 10.8091 13.4373 11.0004 13.95 11.0004C14.4627 11.0004 14.9578 10.8091 15.3423 10.4623L27.0749 0.122415C26.8979 0.0414962 26.7062 -0.000221879 26.5123 8.87463e-07H1.38773C1.19383 -0.000221879 1.00207 0.0414962 0.825063 0.122415ZM27.692 0.673276C27.8281 0.897004 27.9001 1.15523 27.9 1.41869V17.1813C27.9001 17.4448 27.8281 17.703 27.692 17.9267L17.9036 9.3L27.692 0.673276ZM17.2823 9.84743L27.0749 18.4776C26.8979 18.5585 26.7062 18.6002 26.5123 18.6H1.38773C1.19383 18.6002 1.00207 18.5585 0.825063 18.4776L10.6177 9.84743L12.0256 11.0894C12.5568 11.5681 13.2406 11.8322 13.9488 11.8322C14.6569 11.8322 15.3408 11.5681 15.872 11.0894L17.2811 9.84743H17.2823ZM9.99636 9.3L0.208022 17.9267C0.071935 17.703 -0.000128194 17.4448 1.71191e-07 17.1813V1.41869C-0.000128194 1.15523 0.071935 0.897004 0.208022 0.673276L9.99636 9.3Z" fill="#323232"/>
</svg>
