<?xml version="1.0" encoding="utf-8"?>
<!-- Generator: Adobe Illustrator 27.7.0, SVG Export Plug-In . SVG Version: 6.00 Build 0)  -->
<svg version="1.1" id="Calque_1" xmlns="http://www.w3.org/2000/svg" xmlns:xlink="http://www.w3.org/1999/xlink" x="0px" y="0px"
	 viewBox="0 0 40 40" style="enable-background:new 0 0 40 40;" xml:space="preserve">
<g>
	<path d="M40,28.8c0,0.8-0.3,1.7-0.8,2.3c-1.1,1.3-2.8,1.3-3.9,0l-13-15.5c-0.6-0.7-1.4-1.1-2.3-1.1c-0.9,0-1.7,0.4-2.3,1.1
		l-13,15.5c-1.1,1.3-2.8,1.3-3.9,0s-1.1-3.4,0-4.7l13-15.5c1.7-2,3.9-3.1,6.2-3.1c2.3,0,4.6,1.1,6.2,3.1l13,15.5
		C39.7,27.1,40,28,40,28.8z"/>
</g>
</svg>
