<svg width="25" height="22" viewBox="0 0 25 22" fill="none" xmlns="http://www.w3.org/2000/svg">
<path fill-rule="evenodd" clip-rule="evenodd" d="M21.5084 9.37683V20.1651C21.5075 20.5719 21.329 20.9618 21.0119 21.2495C20.6948 21.5372 20.265 21.6992 19.8166 21.7H16.8996C16.6257 21.6996 16.3632 21.6007 16.1695 21.4249C15.9758 21.2492 15.8668 21.0111 15.8663 20.7626V13.5357C15.8657 13.2088 15.7223 12.8954 15.4675 12.6642C15.2127 12.4331 14.8673 12.3029 14.5069 12.3024H10.2931C9.93276 12.303 9.58739 12.4332 9.33261 12.6643C9.07782 12.8955 8.93437 13.2088 8.93367 13.5357V20.7626C8.93319 21.0111 8.82417 21.2492 8.6305 21.4249C8.43683 21.6007 8.17429 21.6996 7.9004 21.7H4.98343C4.535 21.6992 4.10519 21.5372 3.7881 21.2495C3.47101 20.9618 3.29247 20.5719 3.29156 20.1651V9.37683C3.29128 9.25259 3.23676 9.13352 3.13994 9.04567C3.04311 8.95782 2.91186 8.90836 2.77493 8.9081H0.563782C0.445313 8.90804 0.329873 8.87414 0.233833 8.8112C0.137793 8.74827 0.0660279 8.65951 0.0287135 8.5575C-0.00860087 8.45549 -0.00957006 8.34541 0.0259433 8.24287C0.0614567 8.14033 0.13165 8.05054 0.22657 7.98622L11.7256 0.206138C11.9195 0.0724055 12.1564 0 12.4 0C12.6436 0 12.8805 0.0724055 13.0744 0.206138L24.5734 7.98622C24.6684 8.05054 24.7385 8.14033 24.7741 8.24287C24.8096 8.34541 24.8086 8.45549 24.7713 8.5575C24.734 8.65951 24.6622 8.74827 24.5662 8.8112C24.4701 8.87414 24.3547 8.90804 24.2362 8.9081H22.0251C21.8881 8.90836 21.7569 8.95782 21.6601 9.04567C21.5632 9.13352 21.5087 9.25259 21.5084 9.37683Z" fill="#323232"/>
</svg>
