<svg width="22" height="25" viewBox="0 0 22 25" fill="none" xmlns="http://www.w3.org/2000/svg">
<path d="M20.8545 18.9917L17.256 16.1931C16.8896 15.913 16.5212 15.7715 16.1623 15.7715C15.6783 15.7715 15.2178 16.0256 14.7958 16.5235L13.9214 17.5374C13.6921 17.8131 13.3725 17.9641 13.0228 17.9641C12.8008 17.9641 12.579 17.904 12.3829 17.7895C11.7294 17.402 10.4875 16.3515 8.96154 14.5636C7.55299 12.9132 6.49108 11.4487 6.12469 10.6545C5.91242 10.1594 5.89183 9.38934 6.34419 8.87268L7.22888 7.89085C7.99228 7.03207 8.09939 6.03212 7.53018 5.07637L5.07975 0.947487C4.68776 0.31 4.23484 0 3.6954 0C3.08112 0 2.38589 0.407928 1.73683 1.15002L1.6492 1.25049C0.554741 2.50067 0 4.06434 0 5.89572C0 9.43799 2.12326 13.8966 5.82589 18.1282C9.60503 22.4303 13.3828 24.8 16.4653 24.8C18.1103 24.8 19.4994 24.166 20.5936 22.9152L20.6089 22.9015L20.6245 22.8748C20.6398 22.8605 20.6545 22.8456 20.6695 22.8287C21.3534 22.0472 21.7 21.2889 21.7 20.5767C21.7 19.958 21.4154 19.4248 20.8545 18.9917Z" fill="#323232"/>
</svg>
